<?xml version="1.0" standalone="no"?>
<!DOCTYPE svg PUBLIC "-//W3C//DTD SVG 1.1//EN" "http://www.w3.org/Graphics/SVG/1.1/DTD/svg11.dtd">
<svg xmlns="http://www.w3.org/2000/svg">
<metadata>Copyright (C) 2016 by original authors @ fontello.com</metadata>
<defs>
<font id="fontello" horiz-adv-x="1000" >
<font-face font-family="fontello" font-weight="400" font-stretch="normal" units-per-em="1000" ascent="850" descent="-150" />
<missing-glyph horiz-adv-x="1000" />
<glyph glyph-name=".notdef" unicode="&#xe800;" d="M33 0v666h265v-666h-265z m33 33h199v600h-199v-600z" horiz-adv-x="364" />

<glyph glyph-name="plus" unicode="&#xe801;" d="M565 400q30 0 30-50t-30-50h-210v-210q0-30-50-30t-50 30v210h-210q-30 0-30 50t30 50h210v210q0 30 50 30t50-30v-210h210z" horiz-adv-x="610" />

<glyph glyph-name="hyphen" unicode="&#xe802;" d="M565 400q30 0 30-50t-30-50h-520q-30 0-30 50t30 50h520z" horiz-adv-x="610" />

<glyph glyph-name="T" unicode="&#xe805;" d="M15-37q30-3 60-3 176 0 314 108-84 1-148 52t-88 123q17-4 47-4 36 0 67 9-85 16-144 85t-59 162v3q52-29 115-31-49 32-81 87t-32 123 35 127q89-112 223-183t297-81q-7 31-7 58 0 104 74 178t179 74q109 0 184-80 85 18 160 62-28-91-110-140 75 9 144 40-48-75-125-131v-33q0-212-120-396-131-202-346-280-117-42-252-42-208 0-387 113z" horiz-adv-x="1260" />

<glyph glyph-name="uni2139" unicode="&#xe806;" d="M367 850q46 0 73-26t27-70q0-51-40-88t-94-38q-47 0-73 26t-25 72q0 45 35 85 34 39 97 39z m-206-1000q-100 0-54 178l60 254q14 56 0 56-12 0-54-18-40-17-72-38l-26 44q90 78 189 126t151 48q78 0 36-162l-70-266q-16-64 6-64 45 0 118 60l30-40q-84-86-175-132t-139-46z" horiz-adv-x="490" />

<glyph glyph-name="arrowleft" unicode="&#xe807;" d="M255 100l-240 250 240 250v-160h740v-178h-740v-162z" horiz-adv-x="1010" />

<glyph glyph-name="arrowright" unicode="&#xe808;" d="M757 100v162h-742v178h742v160l238-250z" horiz-adv-x="1010" />

<glyph glyph-name="uni2709" unicode="&#xe809;" d="M17 626q2 14 26 14h846q38 0 20-32-8-15-24-22-8-4-96-51t-181-97-97-52q-16-10-46-10-29 0-46 10-4 2-96 52t-181 97-97 51q-32 18-28 40z m878-140q20 11 20-10v-368q0-16-17-32t-33-16h-800q-16 0-33 16t-17 32v368q0 21 20 10l384-200q17-10 46-10t46 10z" horiz-adv-x="930" />

<glyph glyph-name="uni270D-1" unicode="&#xe80a;" d="M176-7q-66 0-113 48t-48 113v464q0 66 48 114t113 47h464q34 0 65-14 8-4 10-13t-5-16l-27-28q-5-5-12-5t-16 2-15 2h-464q-37 0-63-26t-27-63v-464q0-37 27-63t63-27h464q37 0 63 27t26 63v70q0 7 5 12l36 36q9 9 20 5t11-17v-106q0-66-47-113t-114-48h-464z m196 303l375 375 161-160-375-375h-161v160z m107-53v-54h32l64 65-85 85-64-65v-31h53z m81 134l196 196q6 6 4 14t-8 8-14-4l-196-196q-9-9 0-18t18 0z m223 330l51 51q16 16 38 16t38-16l85-84q16-16 16-38t-16-38l-51-52z" horiz-adv-x="1026" />

<glyph glyph-name="uniE028" unicode="&#xe80b;" d="M0 704q2 26 20 45t44 19h241q43 0 88-27l377-414q17-23 17-48 0-26-17-44l-280-278q-21-17-46-18t-44 18l-355 397q-45 54-45 109v241z m104-103q0-25 20-43t43-18q25 1 43 20t17 44q0 40-38 55t-68-12q-17-20-17-46z m316 165h92q71-4 109-45l356-396q17-20 17-48 0-27-17-44l-280-278q-61-35-95 8l271 272q18 21 18 47t-18 45l-318 355q-24 31-71 57t-64 27z" horiz-adv-x="994" />

<glyph glyph-name="uniE107" unicode="&#xe80c;" d="M0 245v97l94 8q7 28 23 55l-60 74 68 68 74-60q27 16 55 23l8 94h97l10-94q28-7 55-23l74 60 68-68-60-74q16-27 23-55l94-8v-97l-94-10q-7-28-23-55l60-72-68-70-74 60q-27-16-55-23l-10-94h-97l-8 94q-28 7-55 23l-74-60-68 70 60 72q-16 27-23 55z m221 48q0-37 27-63t63-26 63 26 26 63-26 64-63 26-63-26-27-64z m318 239l8 72 70-2q7 19 20 39l-37 57 54 45 49-49q13 7 41 13l14 67 72-8-2-68q18-7 39-22l57 39 45-54-49-49q11-20 12-43l68-14-8-70h-68q-6-16-22-37l39-59-56-45-47 49q-19-7-43-12l-14-66-70 6v70q-17 6-37 20l-59-38-45 55 49 49q-7 19-12 41z m31-446l6 51h49q5 13 14 27l-26 43 37 34 36-37q13 7 29 9l10 49 48-6v-49q20-8 28-15l41 27 31-41-35-35q4-9 10-29l47-12-6-51h-49q-5-17-14-27l28-43-40-33-35 37q-16-9-29-10l-10-49-49 6v51q-18 6-27 13l-41-27-31 41 35 35q-6 15-8 30z m118 14q-6-31 22-47t52 3q15 12 18 32t-11 36q-11 14-31 19h-6q-17 0-30-13t-14-30z m17 451q-6-42 34-64t73 6q20 17 23 44t-14 48q-16 20-44 25h-7q-26 0-44-17t-21-42z" horiz-adv-x="1000" />

<glyph glyph-name="uniE716" unicode="&#xe80d;" d="M59 548q4 9 12 14 1 0 49 17 62 22 93 32 47 15 58 15h44v150h380v-150h46q12 0 57-15 30-10 92-32 48-17 49-17 18-8 12-26-4-10-20-10h-850q-26 0-22 22z m882-78q20 0 37-19t17-41v-174q0-21-17-40t-37-20h-100l44-250h-760l44 250h-98q-20 0-38 20t-18 40v174q0 21 18 41t38 19h870z m-716-444h560l-70 324h-420z" horiz-adv-x="1010" />

<glyph glyph-name="uniE718" unicode="&#xe80e;" d="M15 350q0 147 146 253 66 47 159 76t195 28q137 0 253-48t180-130q67-82 67-179t-67-179q-65-81-180-129t-253-49q-44 0-81 4-111-97-257-135-27-8-63-12-21-3-27 21v1q-5 7 11 27 8 9 25 28t30 35 21 33q21 42 30 75-87 50-138 123t-51 157z" horiz-adv-x="1030" />

<glyph glyph-name="uniE720" unicode="&#xe80f;" d="M1075 432q0-124-76-217t-189-145q-124-56-266-56-110 0-211 35l2-3-321-96q40 54 63 113 24 59 28 96l4 34q-95 107-95 239 0 125 76 218t187 144q123 56 267 56 147 0 269-57t191-151q71-95 71-210z m-225 0q0 26-19 45t-46 19q-25 0-44-19t-20-45 19-45 45-19q27 0 46 19t19 45z m-225 0q0 26-19 45t-46 19q-25 0-44-19t-20-45 19-45 45-19q27 0 46 19t19 45z m-225 0q0 26-19 45t-46 19q-25 0-44-19t-20-45 19-45 45-19q27 0 46 19t19 45z" horiz-adv-x="1088" />

<glyph glyph-name="uniE724" unicode="&#xe810;" d="M442 677q73-73 73-177 0-105-62-243-63-139-126-223l-62-84q-35 41-83 117t-80 137q-87 169-87 296 0 104 73 177t177 73 177-73z m-177-315q55 0 96 40t40 96q0 55-40 95t-96 39q-55 0-94-39t-40-95 40-96 94-40z" horiz-adv-x="530" />

<glyph glyph-name="uniE735" unicode="&#xe811;" d="M978 721v-631q0-44-33-77t-73-34h-717q-136 0-136 159v461h132v122h827z m-827-190h-65v-393q0-86 32-86 33 0 33 86v393z m759 123h-691v-516q0-54-19-92h672q17 0 28 15t10 29v564z m-425-452h-159v23h159v-23z m0-71h-159v23h159v-23z m63 308h266v-254h-266v254z m-63-97h-159v23h159v-23z m0-71h-159v23h159v-23z m0 145h-159v23h159v-23z m-135 95v44h416v-44h-416z" horiz-adv-x="996" />

<glyph glyph-name="uniE750" unicode="&#xe812;" d="M944-79q0-29-21-50t-51-21q-30 0-50 21l-191 191q-101-69-223-69-83 0-155 32t-123 83-83 123-32 155 32 155 83 123 123 83 155 32 155-32 123-83 83-123 32-155q0-122-69-223l191-191q21-21 21-51z m-713 288q73-73 177-73 103 0 176 73 74 74 74 177 0 102-74 176t-176 74q-103 0-177-74-73-73-73-176 0-104 73-177z m-2 159v36q0 17 18 17h125v125q0 8 5 13t13 5h36q8 0 13-5t5-13v-125h125q17 0 17-17v-36q0-18-17-18h-125v-125q0-7-5-12t-13-6h-36q-8 0-13 6t-5 12v125h-125q-7 0-12 5t-6 13z" horiz-adv-x="959" />

<glyph glyph-name="uniE765" unicode="&#xe813;" d="M467-20q25-26 0-48-25-26-48 0l-392 394q-24 24 0 50l392 394q23 26 48 0 25-22 0-48l-358-372z" horiz-adv-x="495" />

<glyph glyph-name="uniE766" unicode="&#xe814;" d="M28-20l358 370-358 372q-26 26 0 48 26 26 48 0l392-394q24-26 0-50l-392-394q-22-26-48 0-26 22 0 48z" horiz-adv-x="495" />

<glyph glyph-name="uniE769" unicode="&#xe815;" d="M915 600q41 0 71-29t29-71v-300q0-42-29-71t-71-29h-800q-41 0-70 30t-30 70v300q0 40 30 70t70 30h800z m0-100h-800v-300h800v300z m-750-250v198h200v-198h-200z" horiz-adv-x="1030" />

<glyph glyph-name="uniE76A" unicode="&#xe816;" d="M915 600q41 0 71-29t29-71v-300q0-42-29-71t-71-29h-800q-41 0-70 30t-30 70v300q0 40 30 70t70 30h800z m0-100h-800v-300h800v300z m-750-52h200v-198h-200v198z m250-198v198h200v-198h-200z" horiz-adv-x="1030" />

<glyph glyph-name="uniE76B" unicode="&#xe817;" d="M915 600q41 0 71-29t29-71v-300q0-42-29-71t-71-29h-800q-41 0-70 30t-30 70v300q0 40 30 70t70 30h800z m0-100h-800v-300h800v300z m-750-52h200v-198h-200v198z m250 0h200v-198h-200v198z m250 0h200v-198h-200v198z" horiz-adv-x="1030" />

<glyph glyph-name="uniE78E" unicode="&#xe818;" d="M915 650q41 0 71-29t29-71v-550q0-42-29-71t-71-29h-50v750h50z m-900-100q0 40 30 70t70 30h50v-750h-50q-41 0-70 29t-30 71v550z m670 100h110v-750h-560v750h110v104q96 46 170 46t170-46v-104z m-60 0v66q-53 24-110 24-55 0-110-24v-66h220z" horiz-adv-x="1030" />

<glyph glyph-name="uniE800" unicode="&#xe819;" d="M99 695q84 84 202 84t202-84q83-83 83-202 0-61-18-100l-203-432q-18-40-64-40t-64 40l-204 432q-18 39-18 100 0 118 84 202z m59-202q0-59 42-101t101-42 101 42 42 101-42 101-101 42-101-42-42-101z" horiz-adv-x="601" />

<glyph glyph-name="uniE801" unicode="&#xe81a;" d="M18 500h150v-400h-150v400z m200-350v300q53 0 105 100 26 62 45 150h100q0-44-10-115-14-59-40-85l250-50-50-350q-50-50-150-50-65 0-140 25-80 30-110 75z" horiz-adv-x="686" />

<glyph glyph-name="uniE802" unicode="&#xe81b;" d="M800 675q135-135 135-325t-135-325-325-135-325 135-135 325 135 325 325 135 325-135z m-70-579q105 106 105 254 0 150-105 255t-255 105q-147 0-254-105-106-105-106-255 0-148 106-254t254-106q150 0 255 106z m-219 514v-244l150-150-50-50-170 170v274h70z" horiz-adv-x="950" />

<glyph glyph-name="uniE803" unicode="&#xe81c;" d="M715 700q42 0 71-29t29-71v-350q0-41-29-70t-71-30h-200v-150l-200 150h-200q-40 0-70 30t-30 70v350q0 41 30 71t70 29h600z" horiz-adv-x="830" />

<glyph glyph-name="uniF061" unicode="&#xe81d;" d="M0-119q0 32 11 67t28 52 68 38q18 7 64 24t85 32 59 25q34 18 57 53t23 79q0 25-33 63-73 84-73 252 0 184 138 237 43 16 86 16 91 0 155-61 68-65 68-192 0-168-73-252-33-38-33-63 0-43 23-79t57-53q27-14 113-45t95-36q49-20 67-38 14-14 25-43t13-55l2-21h-1025z" horiz-adv-x="1025" />

<glyph glyph-name="uniF0C9" unicode="&#xe81e;" d="M51-7q-14 0-25 11t-11 25v71q0 14 11 25t25 11h785q14 0 25-11t11-25v-71q0-14-11-25t-25-11h-785z m0 286q-14 0-25 11t-11 24v72q0 14 11 25t25 10h785q14 0 25-10t11-25v-72q0-14-11-24t-25-11h-785z m-36 321v71q0 14 11 25t25 11h785q14 0 25-11t11-25v-71q0-14-11-25t-25-11h-785q-14 0-25 11t-11 25z" horiz-adv-x="887" />

<glyph glyph-name="uniF0E0" unicode="&#xe81f;" d="M104-79q-37 0-63 26t-26 64v443q25-29 56-49 234-160 278-192 7-5 19-14t16-12 14-10 16-9l17-9q10-5 22-10 32-13 61-13h2q27 0 61 13t53 27q27 18 51 37 58 42 278 192 34 24 56 49v-443q0-37-26-64t-63-26h-822z m-89 685q0 44 24 73t65 28h822q36 0 63-26t26-63q0-86-95-153-65-45-127-88t-97-67-61-43q-42-30-59-40-36-20-60-20h-2q-33 0-89 38-29 20-53 39-119 84-261 181-33 23-64 64t-32 77z" horiz-adv-x="1030" />

<glyph glyph-name="uniF0F2" unicode="&#xe820;" d="M140-79q-51 0-88 37t-37 88v465q0 51 37 88t88 37h36v-715h-36z m536 858q22 0 38-15t15-39v-89h72v-715h-572v715h72v89q0 23 16 39t37 15h322z m-18-143v71h-286v-71h286z m196-715v715h36q51 0 88-37t37-88v-465q0-51-37-88t-88-37h-36z" horiz-adv-x="1030" />

<glyph glyph-name="uniF104-1" unicode="&#xe821;" d="M15 314q0 7 6 13l260 260q6 6 12 6 7 0 13-6l28-28q6-6 6-13 0-6-6-12l-219-220 219-219q6-6 6-13t-6-13l-28-28q-5-5-13-5-7 0-12 5l-260 260q-6 6-6 13z" horiz-adv-x="355" />

<glyph glyph-name="uniF105" unicode="&#xe822;" d="M15 82q0 7 6 13l219 219-219 220q-6 6-6 12 0 7 6 13l27 28q6 6 13 6t13-6l260-260q6-6 6-13t-6-13l-260-260q-5-5-13-5t-13 5l-27 28q-6 6-6 13z" horiz-adv-x="355" />

<glyph glyph-name="uniF30A" unicode="&#xe823;" d="M835 690q140-140 140-340 0-197-140-339-139-141-340-141-198 0-339 141t-141 339q0 200 141 340 142 140 339 140 200 0 340-140z m-144-252q29 22 46 48-33-13-54-14 30 18 42 52-29-16-60-22-28 28-70 28-39 0-66-28t-28-66q0-2 1-11t1-11q-121 6-194 100-14-25-14-48 0-49 44-78-26 0-44 12v-2q0-35 22-61t54-31q-15-4-24-4-10 0-18 2 19-66 88-66-49-40-118-40h-22q67-42 144-42 122 0 196 83t74 187v12z" horiz-adv-x="990" />

<glyph glyph-name="uniF30D" unicode="&#xe824;" d="M835 690q140-140 140-340 0-197-140-339-139-141-340-141t-340 141q-140 142-140 339 0 200 140 340t340 140 340-140z m-226-190v78h-72q-44 0-74-33t-30-81v-44h-76v-74h76v-222h86v222h90v74h-90v52q0 28 18 28h72z" horiz-adv-x="990" />

<glyph glyph-name="uniF310" unicode="&#xe825;" d="M449 486q8-30-1-57t-31-33h-10q-42 0-60 60-6 29 2 54 12 32 40 32 43 0 60-56z m386 204q140-140 140-340 0-197-140-339-139-141-340-141-198 0-339 141t-141 339q0 200 141 340 142 140 339 140 200 0 340-140z m-450-562h8q41 0 74 16 60 30 60 98 0 44-52 92-26 23-26 32 0 12 20 26 34 34 34 80 0 58-36 78 4 4 20 4 40 4 40 16v4h-116q-28 0-45-7t-41-29q-32-29-32-76 0-44 25-70t69-26h6q-4-23 16-50h-2q-138 0-138-94 0-41 28-63 22-18 40-24t48-7z m336 272h-76v76h-48v-76h-76v-48h76v-76h48v76h76v48z m-314-106q30 0 51-16t23-44q2-28-20-45t-54-19q-33-4-59 11t-29 41q0 30 23 50t57 22h8z" horiz-adv-x="990" />

<glyph glyph-name="uniF313" unicode="&#xe826;" d="M835 690q140-140 140-340 0-197-140-339-139-141-340-141t-340 141q-140 142-140 339 0 200 140 340t340 140 340-140z m-308-452q82-7 128 64t34 162q-11 73-74 110-66 38-146 28-65-7-117-56-52-48-53-118-4-99 70-116 9 23 9 32t-10 25q-10 16-11 27-13 96 78 144 92 48 158-18 48-48 20-148-28-99-98-86-41 8-33 54 7 45 24 86 16 40-21 60-42 18-65-33-23-52 1-89-5-24-21-83-16-63-18-87-1-12 1-98 52 37 78 172 47-31 66-32z" horiz-adv-x="990" />

<glyph glyph-name="uniF319" unicode="&#xe827;" d="M835 690q140-140 140-340 0-197-140-339-139-141-340-141-198 0-339 141t-141 339q0 200 141 340 142 140 339 140 200 0 340-140z m-458-226h-96v-312h96v312z m-48 136q-21 0-36-14t-16-34q0-48 52-48t52 48-52 48z m404-448v184q0 61-29 99t-83 37q-66 0-96-50h-2l-6 42h-84q2-38 2-100v-212h98v180q0 19 4 24 12 38 50 38 48 0 48-68v-174h98z" horiz-adv-x="990" />

<glyph glyph-name="uniF33A" unicode="&#xe828;" d="M563 276q0-21-20-32t-48-12q-19 0-36 6-24 13-34 42-6 17-14 22-8 8-22 8-13 0-26-10-10-10-10-24 0-21 16-46 42-56 128-56 39 0 78 14 36 18 48 40 18 24 18 56 0 27-9 46t-30 29-37 17-47 14-45 12q-5 2-11 4t-9 3-5 4-9 7q-6 6-6 16 0 15 18 25t40 9q32 0 42-10 12-10 22-28 6-12 14-20 11-6 22-6 14 0 24 10t10 24-6 30q-5 9-24 28-21 15-42 20-24 8-56 8-86 0-120-46-18-22-18-50 0-30 16-52 20-20 42-32 49-17 89-25 33-7 47-21 10-7 10-24z m272 414q140-140 140-340 0-197-140-339-139-141-340-141-198 0-339 141t-141 339q0 200 141 340 142 140 339 140 200 0 340-140z m-224-608q58 0 100 44t42 102q0 35-16 66 6 28 6 54 0 104-72 178t-174 74q-24 0-42-2-34 22-74 22-59 0-101-43t-43-103q0-39 20-76-4-15-4-50 0-104 72-178t172-74q34 0 46 4 30-18 68-18z" horiz-adv-x="990" />

<glyph glyph-name="u1F342" unicode="&#xe829;" d="M251 646q182 107 506 66 169-23 196-50 4-5-2-10-76-40-130-109t-78-132q-23-61-65-132-40-69-93-105-137-96-382-4-67-78-114-176-12-24-47-7t-25 39q43 100 129 193 87 95 176 153 179 119 317 174l54 20q-65 0-148-15t-145-38q-70-25-162-84-89-57-161-141-23 242 174 358z" horiz-adv-x="970" />

<glyph glyph-name="u1F393" unicode="&#xe82a;" d="M515 70l276 136q-1-8-4-27t-5-31-6-25-10-22q-17-25-69-45-24-10-75-38t-68-37q-24-11-39-11-17 0-40 13-10 5-41 23t-57 32-46 22q-71 31-103 69-30 36-47 109z m-94 386q0-26 29-41t65-15q27 0 36 4l292-68-268-152q-60-32-120 0l-416 234q-24 14-24 33t24 33l416 234q60 32 120 0l416-234q24-14 24-33t-24-33l-78-44-308 102q-23 36-90 36-36 0-65-15t-29-41z m442-414q18 113 13 182-4 64-19 90l-14 22 70 38q5-7 12-28 7-22 17-101 11-83-7-197-5-26-22-30-15-3-33 5t-17 19z" horiz-adv-x="1030" />

<glyph glyph-name="u1F44D" unicode="&#xe82b;" d="M86-7q-29 0-50 21t-21 50v357q0 29 21 51t50 21h153q22 15 77 86 40 51 59 72 14 14 20 47 5 25 9 40t12 40 18 38 26 24 37 10q161 0 161-179 0-51-27-107h98q57 0 100-42t43-100q0-49-27-91 5-20 5-38 0-43-21-81 1-8 1-24 0-56-33-99 1-77-47-123t-127-45h-72q-49 0-106 13-43 10-121 37-63 22-77 22h-161z m0 107q0-14 11-25t25-11 25 11 11 25-11 25-25 11-25-11-11-25z m143-36h18q13 0 28-3t23-5 25-9 21-8q129-46 207-46h67q107 0 107 93 0 20-2 31 15 8 26 29t10 42q0 21-10 38 29 28 29 67 0 36-19 57 17 1 30 26t12 45q0 28-22 50t-50 22h-196q0 32 27 89 26 55 26 89 0 57-18 83t-71 25q-15-15-21-48-21-100-50-131-12-13-54-66t-61-73q-40-40-64-40h-18v-357z" horiz-adv-x="887" />

<glyph glyph-name="u1F464" unicode="&#xe82c;" d="M751 128q204-72 204-122v-106h-940v106q0 50 204 122 93 34 128 69 34 34 34 95 0 23-22 49-21 26-32 73-3 21-23 26-18 5-23 60 0 32 14 38l4 4q-7 46-12 88-4 53 41 112 45 58 157 58t158-58 40-112l-12-88q18-8 18-42-5-55-23-60-20-5-23-26-7-47-31-74-23-26-23-48 0-60 35-95 34-34 127-69z" horiz-adv-x="970" />

<glyph glyph-name="u1F4C5" unicode="&#xe82d;" d="M815 700q42 0 71-29t29-71v-600q0-41-29-71t-71-29h-700q-40 0-70 30t-30 70v600q0 41 30 71t70 29h46v-100h160v100h290v-100h160v100h44z m0-300h-700v-400h700v400z m-540 230h-70v170h70v-170z m450 170v-170h-70v170h70z" horiz-adv-x="930" />

<glyph glyph-name="u1F4CA" unicode="&#xe82e;" d="M765 800q21 0 36-15t14-35v-850h-200v850q0 50 40 50h110z m-300-300q21 0 36-15t14-35v-550h-200v550q0 50 40 50h110z m-300-300q21 0 36-15t14-35v-250h-200v250q0 50 40 50h110z" horiz-adv-x="830" />

<glyph glyph-name="u1F4E4" unicode="&#xe82f;" d="M515 776l260-244h-164v-256h-190v256h-166z m468-578q16-9 27-30t3-42l-28-154q-4-19-21-33t-41-13h-816q-23 0-40 13t-22 33l-28 154q-10 48 32 72l158 108h98l-170-130h178q7 0 12-8l40-110h300l40 110q8 8 12 8h178l-170 130h98z" horiz-adv-x="1030" />

<glyph glyph-name="u1F4E5" unicode="&#xe830;" d="M983 198q16-9 27-30t3-42l-28-154q-4-19-21-33t-41-13h-816q-23 0-40 13t-22 33l-28 154q-10 48 32 72l158 108h98l-170-130h178q7 0 12-8l40-110h300l40 110q8 8 12 8h178l-170 130h98z m-208 322l-260-244-260 244h166v256h190v-256h164z" horiz-adv-x="1030" />

<glyph glyph-name="u1F554" unicode="&#xe831;" d="M15 350q0 123 60 220t153 151q101 58 216 58 123 0 220-60t151-154q57-99 57-215 0-123-60-219t-153-152q-101-58-215-58-123 0-220 60t-152 154q-57 99-57 215z m143 0q0-118 84-202t202-84 202 84q83 83 83 202t-83 202q-84 84-202 84t-202-84-84-202z m214-54v250q0 8 5 13t13 5h36q8 0 13-5t5-13v-196h160q8 0 13-5t5-13v-36q0-17-18-17h-214q-18 0-18 17z" horiz-adv-x="887" />

<glyph glyph-name="uni2716-1" unicode="&#xe83d;" d="M15 350q0 123 60 220t153 151q101 58 216 58 123 0 220-60t151-154q57-99 57-215 0-123-60-219t-153-152q-101-58-215-58-123 0-220 60t-152 154q-57 99-57 215z m216-126q0-15 11-26l50-50q11-11 25-11 15 0 26 11l101 101 101-101q11-11 25-11t25 11l51 50q10 10 10 26 0 15-10 25l-101 101 101 101q10 10 10 25 0 16-10 26l-51 50q-11 11-25 11t-25-11l-101-101-101 101q-11 11-26 11-14 0-25-11l-50-50q-11-11-11-26 0-14 11-25l101-101-101-101q-11-11-11-25z" horiz-adv-x="887" />
</font>
</defs>
</svg>
